<svg width="60" height="60" viewBox="0 0 60 60" fill="none" xmlns="http://www.w3.org/2000/svg">
<path d="M16.8223 8.30297L16.5633 11.1143C16.515 11.6372 16.7399 12.1337 17.1647 12.4425C17.5895 12.7512 18.1314 12.8116 18.6141 12.6042L21.2077 11.4891L23.8014 12.6043C23.991 12.6858 24.1896 12.7259 24.3867 12.7259C24.6915 12.7259 24.9926 12.63 25.2506 12.4425C25.6754 12.1337 25.9003 11.6372 25.852 11.1143L25.593 8.30297L27.4552 6.18082C27.8016 5.78602 27.9114 5.25199 27.7491 4.75254C27.5868 4.25297 27.184 3.88582 26.6718 3.77004L23.918 3.14754L22.4752 0.720937C22.2067 0.269531 21.7329 0 21.2077 0C20.6824 0 20.2086 0.269531 19.9402 0.720937L18.4973 3.14766L15.7436 3.77004C15.2312 3.8857 14.8286 4.25309 14.6662 4.75254C14.5039 5.25199 14.6137 5.7859 14.9603 6.18082L16.8223 8.30297ZM19.0037 4.83539C19.3968 4.74656 19.7402 4.49695 19.9461 4.15066L21.2078 2.02887L22.4694 4.15078C22.6753 4.49707 23.0188 4.74656 23.4118 4.83539L25.8197 5.37973L24.1915 7.23516C23.9256 7.5382 23.7945 7.94203 23.8315 8.34305L24.058 10.8013L21.79 9.82617C21.6049 9.7466 21.4064 9.70687 21.2078 9.70687C21.0091 9.70687 20.8104 9.7466 20.6252 9.82629L18.3573 10.8013L18.5838 8.34305C18.6207 7.9418 18.4896 7.53797 18.2238 7.23527L16.5956 5.37949L19.0037 4.83539Z" fill="white"/>
<path d="M3.51562 12.6131L5.57707 11.727L7.63851 12.6131C7.81429 12.6888 7.99828 12.726 8.18109 12.726C8.46351 12.726 8.74265 12.637 8.98183 12.4632C9.3757 12.1772 9.58418 11.7169 9.53941 11.2321L9.3334 8.99766L10.8135 7.31098C11.1345 6.945 11.2363 6.45012 11.0859 5.98711C10.9355 5.52422 10.5622 5.18379 10.0874 5.07645L7.89867 4.5818L6.75187 2.65312C6.50308 2.23477 6.06387 1.98492 5.57707 1.98492C5.09027 1.98492 4.65117 2.23477 4.40226 2.65312L3.25558 4.58191L1.06676 5.07656C0.591913 5.18391 0.21867 5.52434 0.0682017 5.98723C-0.082267 6.45023 0.0195689 6.94512 0.34078 7.31121L1.82074 8.99766L1.61484 11.2321C1.57019 11.7169 1.77867 12.1771 2.17254 12.4632C2.56629 12.7494 3.06855 12.8053 3.51562 12.6131ZM2.09578 6.64605L3.80707 6.25934C4.17117 6.17695 4.48945 5.94574 4.68047 5.62477L5.57695 4.1168L6.47379 5.625C6.66469 5.94586 6.98297 6.17707 7.34719 6.25934L9.05836 6.64605L7.90113 7.96477C7.65492 8.24543 7.5334 8.61961 7.5675 8.99168L7.72851 10.7385L6.11672 10.0455C5.77371 9.89812 5.38019 9.89801 5.03719 10.0457L3.42551 10.7386L3.58652 8.9918C3.62074 8.62008 3.49933 8.2459 3.25289 7.96465L2.09578 6.64605Z" fill="white"/>
<path d="M32.3129 8.99766L32.107 11.2321C32.0624 11.7169 32.2709 12.1771 32.6647 12.4632C33.0586 12.7494 33.5607 12.8053 34.0079 12.613L36.0694 11.7268L38.1308 12.6131C38.3065 12.6887 38.4906 12.7259 38.6734 12.7259C38.9558 12.7259 39.235 12.6369 39.4741 12.4631C39.868 12.1771 40.0765 11.7168 40.0317 11.232L39.8258 8.99766L41.3059 7.31098C41.6269 6.945 41.7287 6.45012 41.5784 5.98711C41.4279 5.52422 41.0546 5.18379 40.5798 5.07645L38.391 4.5818L37.2441 2.65312C36.9953 2.23477 36.5561 1.98492 36.0693 1.98492C35.5825 1.98492 35.1434 2.23477 34.8946 2.65312L33.7479 4.58191L31.5591 5.07656C31.0842 5.18391 30.711 5.52434 30.5605 5.98723C30.41 6.45023 30.5119 6.94512 30.8331 7.31109L32.3129 8.99766ZM34.2994 6.25934C34.6635 6.17695 34.9818 5.94574 35.1728 5.62477L36.0693 4.1168L36.966 5.625C37.1569 5.94586 37.4753 6.17707 37.8394 6.25934L39.5505 6.64605L38.3933 7.96477C38.1471 8.24543 38.0256 8.61961 38.0597 8.99168L38.2207 10.7386L36.6089 10.0455C36.2659 9.89812 35.8724 9.89801 35.5294 10.0457L33.9177 10.7386L34.0787 8.9918C34.113 8.61996 33.9914 8.24566 33.745 7.96477L32.5878 6.64605L34.2994 6.25934Z" fill="white"/>
<path d="M59.385 46.974C59.385 46.0146 58.9746 45.1494 58.3201 44.5446C58.9746 43.9398 59.385 43.0745 59.385 42.1152C59.385 40.2911 57.9008 38.8069 56.078 38.8069L47.2481 38.7934C46.5775 38.7923 46.0318 38.2458 46.0318 37.5751V31.3013C46.0318 29.6958 45.2209 28.2261 43.8626 27.3701C43.2114 26.9595 42.4246 26.8805 41.7038 27.1533C40.9821 27.4263 40.444 28.0075 40.2272 28.7475L36.7182 40.7291C36.2687 42.2643 34.8376 43.3363 33.238 43.3363H31.7169V42.8346C31.7169 41.8184 30.8902 40.9916 29.8739 40.9916H24.0609C23.0447 40.9916 22.2179 41.8184 22.2179 42.8346V48.4786H7.20352C6.42902 48.4786 5.70609 48.1327 5.22023 47.5294C4.73437 46.9262 4.55039 46.1462 4.71539 45.3894C5.43187 42.1042 7.26867 39.1331 9.88734 37.024C12.5061 34.9147 15.8002 33.7532 19.1627 33.7532H20.8362C25.7058 33.7532 30.3374 35.8582 33.5434 39.5285C33.8627 39.8943 34.4179 39.9315 34.7836 39.6123C35.1492 39.293 35.1866 38.7377 34.8673 38.3722C32.3507 35.4912 29.0381 33.4847 25.4013 32.5648C28.277 30.9578 30.2268 27.8843 30.2268 24.3626C30.2268 19.1845 26.0142 14.972 20.8363 14.972C18.6855 14.972 16.5837 15.7177 14.9176 17.0716C14.5409 17.3777 14.4837 17.9313 14.7899 18.3081C15.0961 18.6846 15.6497 18.7419 16.0262 18.4358C17.3798 17.3357 19.0881 16.7298 20.8363 16.7298C25.045 16.7298 28.4689 20.1539 28.4689 24.3626C28.4689 28.5712 25.045 31.9954 20.8363 31.9954C16.6275 31.9954 13.2035 28.5712 13.2035 24.3626C13.2035 23.2062 13.4552 22.0958 13.9516 21.0623C14.1619 20.6249 13.9775 20.0998 13.54 19.8895C13.1024 19.6794 12.5774 19.8638 12.3671 20.3013C11.7557 21.5741 11.4456 22.9405 11.4456 24.3626C11.4456 27.7192 13.2169 30.6683 15.8727 32.329C13.293 32.8547 10.851 33.9908 8.78473 35.6549C5.85469 38.0149 3.79945 41.3389 2.99789 45.0148C2.71898 46.2939 3.02988 47.6122 3.85113 48.6318C4.67226 49.6514 5.89418 50.2362 7.2034 50.2362H22.2178V57.6551C22.2178 58.6713 23.0446 59.4981 24.0608 59.4981H29.8738C30.89 59.4981 31.7168 58.6713 31.7168 57.6551V57.6273H34.5499C36.4622 57.6273 38.2676 57.9908 39.9161 58.7075C41.8307 59.54 43.8599 59.962 45.9439 59.962L56.0766 60C57.9008 60 59.3849 58.5158 59.3849 56.6917C59.3849 55.7324 58.9745 54.8672 58.32 54.2624C58.9745 53.6576 59.3849 52.7923 59.3849 51.833C59.3849 50.8737 58.9745 50.0084 58.32 49.4035C58.9745 48.7985 59.385 47.9332 59.385 46.974ZM29.959 57.6552C29.959 57.7021 29.9208 57.7404 29.8738 57.7404H24.0608C24.0138 57.7404 23.9756 57.7022 23.9756 57.6552V42.8345C23.9756 42.7876 24.0138 42.7493 24.0608 42.7493H29.8738C29.9208 42.7493 29.959 42.7875 29.959 42.8345V57.6552ZM53.1914 45.4234H56.0767C56.9317 45.4234 57.6272 46.119 57.6272 46.9739C57.6272 47.8288 56.9316 48.5243 56.0767 48.5243H53.1914C52.706 48.5243 52.3125 48.9177 52.3125 49.4032C52.3125 49.8887 52.706 50.2821 53.1914 50.2821H56.0767C56.9317 50.2821 57.6272 50.9777 57.6272 51.8326C57.6272 52.6875 56.9316 53.3831 56.0767 53.3831H53.1914C52.706 53.3831 52.3125 53.7765 52.3125 54.262C52.3125 54.7475 52.706 55.1409 53.1914 55.1409H56.0767C56.9317 55.1409 57.6272 55.8366 57.6272 56.6913C57.6272 57.5463 56.9316 58.2418 56.0798 58.2418L45.9471 58.204C44.1023 58.204 42.309 57.8309 40.6168 57.0953C38.7459 56.2818 36.7048 55.8693 34.5499 55.8693H31.7168V45.0938H33.2379C35.6128 45.0938 37.7375 43.502 38.405 41.2229L41.914 29.2412C41.9743 29.035 42.1245 28.873 42.3258 28.7968C42.5262 28.7211 42.7446 28.7428 42.9253 28.8567C43.7699 29.389 44.274 30.3027 44.274 31.3008V37.5746C44.274 39.213 45.607 40.548 47.2454 40.5507L56.0766 40.5642C56.9316 40.5642 57.6271 41.2598 57.6271 42.1147C57.6271 42.9696 56.9314 43.6652 56.0766 43.6652H53.1913C52.7059 43.6652 52.3124 44.0586 52.3124 44.5441C52.3124 45.0296 52.7059 45.4234 53.1914 45.4234Z" fill="white"/>
</svg>
