<svg width="60" height="61" viewBox="0 0 60 61" fill="none" xmlns="http://www.w3.org/2000/svg">
<path d="M59.1211 54.9535H55.5012V41.2414C55.5012 40.756 55.1077 40.3625 54.6223 40.3625C54.1369 40.3625 53.7434 40.756 53.7434 41.2414V54.9535H46.0312V24.7496H53.7434V37.1398C53.7434 37.6252 54.1369 38.0187 54.6223 38.0187C55.1077 38.0187 55.5012 37.6252 55.5012 37.1398V23.8707C55.5012 23.3853 55.1077 22.9918 54.6223 22.9918H45.1523C44.667 22.9918 44.2734 23.3853 44.2734 23.8707V54.9535H42.2433V28.6059C42.2433 28.1205 41.8498 27.727 41.3644 27.727H31.8941C31.4087 27.727 31.0152 28.1205 31.0152 28.6059V54.9535H28.9849V35.7086C28.9849 35.2232 28.5914 34.8297 28.106 34.8297H18.6357C18.1504 34.8297 17.7568 35.2232 17.7568 35.7086V54.9535H15.7266V41.3908C15.7266 40.9054 15.333 40.5119 14.8477 40.5119H5.37727C4.89188 40.5119 4.49836 40.9054 4.49836 41.3908V54.9535H0.878906C0.393516 54.9535 0 55.347 0 55.8324V59.6211C0 60.1065 0.393516 60.5 0.878906 60.5H10.3711C10.8565 60.5 11.25 60.1065 11.25 59.6211C11.25 59.1357 10.8565 58.7422 10.3711 58.7422H1.75781V56.7113H58.2422V58.7422H14.4727C13.9873 58.7422 13.5938 59.1357 13.5938 59.6211C13.5938 60.1065 13.9873 60.5 14.4727 60.5H59.1211C59.6065 60.5 60 60.1065 60 59.6211V55.8324C60 55.347 59.6065 54.9535 59.1211 54.9535ZM32.773 29.4848H40.4855V54.9535H32.773V29.4848ZM19.5145 36.5875H27.227V54.9535H19.5145V36.5875ZM6.25617 42.2697H13.9686V54.9535H6.25617V42.2697Z" fill="white"/>
<path d="M5.25938 32.5625H18.6352C19.4112 32.5625 20.1565 32.2347 20.68 31.6634L31.5749 19.7773H38.9965C39.7375 19.7773 40.4339 19.4891 40.9574 18.9656L49.9559 9.96711V12.7436C49.9559 13.229 50.3494 13.6225 50.8348 13.6225H54.6223C55.1077 13.6225 55.5012 13.229 55.5012 12.7436V3.27266C55.5012 1.74383 54.2573 0.5 52.7285 0.5H43.2586C42.7732 0.5 42.3797 0.893516 42.3797 1.37891V5.16758C42.3797 5.65297 42.7732 6.04648 43.2586 6.04648H46.0341L37.8485 14.232H30.3551C29.5799 14.232 28.8349 14.5598 28.3116 15.131L17.4153 27.0172H14.9918C14.5064 27.0172 14.1129 27.4107 14.1129 27.8961C14.1129 28.3815 14.5064 28.775 14.9918 28.775H17.802C18.0483 28.775 18.2834 28.6716 18.4498 28.49L29.6073 16.3188C29.7988 16.1098 30.0712 15.99 30.355 15.99H38.2124C38.4455 15.99 38.6691 15.8974 38.8338 15.7325L48.7772 5.78914C49.0286 5.53777 49.1038 5.15973 48.9677 4.83137C48.8317 4.50289 48.5112 4.28879 48.1557 4.28879H44.1374V2.25781H52.7284C53.288 2.25781 53.7432 2.71309 53.7432 3.27266V11.8648H51.7136V7.84531C51.7136 7.48988 51.4995 7.16937 51.171 7.03332C50.8427 6.8975 50.4645 6.9725 50.2132 7.22387L39.7145 17.7226C39.523 17.9141 39.2679 18.0195 38.9965 18.0195H31.1883C30.9418 18.0195 30.7069 18.1229 30.5403 18.3045L19.384 30.4757C19.1925 30.6848 18.9196 30.8047 18.6352 30.8047H6.13828V28.775H10.8902C11.3756 28.775 11.7691 28.3815 11.7691 27.8961C11.7691 27.4107 11.3756 27.0172 10.8902 27.0172H5.25938C4.77398 27.0172 4.38047 27.4107 4.38047 27.8961V31.6836C4.38047 32.169 4.77398 32.5625 5.25938 32.5625Z" fill="white"/>
</svg>
