<svg width="60" height="61" viewBox="0 0 60 61" fill="none" xmlns="http://www.w3.org/2000/svg">
<path d="M30 0.5C13.4579 0.5 0 13.9579 0 30.5C0 47.0421 13.4579 60.5 30 60.5C46.5421 60.5 60 47.0421 60 30.5C60 13.9579 46.5421 0.5 30 0.5ZM30 56.9844C15.3964 56.9844 3.51562 45.1036 3.51562 30.5C3.51562 15.8964 15.3964 4.01562 30 4.01562C44.6036 4.01562 56.4844 15.8964 56.4844 30.5C56.4844 45.1036 44.6036 56.9844 30 56.9844Z" fill="white"/>
<path d="M22.8387 24.8751C23.1531 25.7936 24.1525 26.2831 25.0711 25.9688C25.9895 25.6543 26.4792 24.6549 26.1648 23.7364C25.1021 20.6325 22.1837 18.5469 18.9028 18.5469C15.6195 18.5469 12.7005 20.6343 11.6392 23.7414C11.3254 24.6601 11.8157 25.6592 12.7344 25.973C12.9226 26.0374 13.1143 26.068 13.3028 26.068C14.0338 26.068 14.7165 25.6082 14.9661 24.8779C15.5413 23.1939 17.1234 22.0626 18.9029 22.0626C20.681 22.0625 22.2627 23.1929 22.8387 24.8751Z" fill="white"/>
<path d="M41.108 18.5469C37.8246 18.5469 34.9057 20.6343 33.8443 23.7414C33.5305 24.6601 34.0208 25.6592 34.9396 25.973C35.1278 26.0374 35.3195 26.068 35.5079 26.068C36.2389 26.068 36.9217 25.6082 37.1713 24.8779C37.7464 23.1939 39.3286 22.0626 41.1081 22.0626C42.8863 22.0626 44.468 23.193 45.0439 24.8752C45.3584 25.7938 46.3576 26.2832 47.2764 25.9689C48.1948 25.6544 48.6845 24.655 48.3701 23.7365C47.3073 20.6325 44.389 18.5469 41.108 18.5469Z" fill="white"/>
<path d="M41.4703 37.8376C40.6363 37.3404 39.5573 37.6139 39.0606 38.4479C37.1685 41.6236 33.6967 43.5963 30 43.5963C26.3139 43.5963 22.8471 41.632 20.9527 38.47C20.4538 37.6374 19.3744 37.3667 18.5413 37.8656C17.7086 38.3646 17.4379 39.4441 17.9368 40.2768C20.4628 44.4929 25.0852 47.1119 29.9999 47.1119C34.9287 47.1119 39.5577 44.4816 42.0805 40.2474C42.5776 39.4135 42.3043 38.3345 41.4703 37.8376Z" fill="white"/>
</svg>
