<svg width="65" height="66" viewBox="0 0 65 66" fill="none" xmlns="http://www.w3.org/2000/svg">
<path d="M52.7618 22.8015C52.7618 21.7498 51.9092 20.8972 50.8575 20.8972H44.6029V18.7221C44.6029 17.6704 43.7503 16.8178 42.6986 16.8178H22.3015C21.2498 16.8178 20.3972 17.6704 20.3972 18.7221V20.8972H14.1426C13.0909 20.8972 12.2383 21.7498 12.2383 22.8015V26.8809C12.2383 32.3214 16.5787 36.7643 21.9784 36.9359C23.7631 40.0662 26.9042 42.327 30.5958 42.913V49.4531H26.3809C23.8569 49.5468 23.8589 53.1689 26.3809 53.2617H38.6192C41.1432 53.168 41.1413 49.5459 38.6192 49.4531H34.4044V42.9129C38.0959 42.3269 41.237 40.0661 43.0217 36.9358C48.4213 36.7643 52.7618 32.3213 52.7618 26.8807V22.8015ZM16.0469 26.8809V24.7058H20.3972V30.9604C20.3972 31.6151 20.4502 32.2576 20.5507 32.8843C17.9517 32.125 16.0469 29.7219 16.0469 26.8809ZM40.7943 30.9602C40.376 41.9515 24.6202 41.9431 24.2058 30.9602V20.6263H40.7943V30.9602ZM48.9532 26.8809C48.9532 29.7219 47.0485 32.125 44.4494 32.8843C44.5499 32.2576 44.6029 31.6151 44.6029 30.9604V24.7058H48.9532V26.8809Z" fill="white"/>
<path d="M53.5516 9.25531L50.5645 12.2425C49.8208 12.9862 49.8208 14.1919 50.5645 14.9356C51.308 15.6791 52.5138 15.6793 53.2575 14.9356L56.2446 11.9484C56.9883 11.2047 56.9883 9.999 56.2446 9.25531C55.5011 8.51162 54.2953 8.51162 53.5516 9.25531Z" fill="white"/>
<path d="M11.7426 51.0644L8.75548 54.0516C8.01179 54.7953 8.01179 56.001 8.75548 56.7447C9.49904 57.4883 10.7048 57.4884 11.4485 56.7447L14.4356 53.7575C15.1793 53.0138 15.1793 51.808 14.4356 51.0644C13.6921 50.3207 12.4863 50.3207 11.7426 51.0644Z" fill="white"/>
<path d="M11.7426 14.9356C12.4861 15.6793 13.6919 15.6793 14.4356 14.9356C15.1793 14.1919 15.1793 12.9861 14.4356 12.2425L11.4485 9.25531C10.705 8.51162 9.49917 8.51162 8.75548 9.25531C8.01179 9.999 8.01179 11.2047 8.75548 11.9484L11.7426 14.9356Z" fill="white"/>
<path d="M53.2575 51.0644C52.514 50.3207 51.3082 50.3207 50.5645 51.0644C49.8208 51.8081 49.8208 53.0138 50.5645 53.7575L53.5516 56.7447C54.2951 57.4884 55.5009 57.4884 56.2446 56.7447C56.9883 56.001 56.9883 54.7953 56.2446 54.0516L53.2575 51.0644Z" fill="white"/>
<path d="M39.1122 8.32474C40.1279 8.59693 41.1722 7.99403 41.4444 6.97815L42.5377 2.89762C42.8101 1.88174 42.2071 0.837547 41.1911 0.565359C40.1754 0.293172 39.1311 0.895946 38.8589 1.91195L37.7656 5.99248C37.4934 7.00836 38.0961 8.05255 39.1122 8.32474Z" fill="white"/>
<path d="M25.8879 57.6753C24.8722 57.4031 23.8279 58.006 23.5557 59.0219L22.4624 63.1024C22.1901 64.1183 22.793 65.1625 23.809 65.4346C24.8247 65.7068 25.869 65.1039 26.1412 64.0881L27.2345 60.0075C27.5067 58.9916 26.904 57.9475 25.8879 57.6753Z" fill="white"/>
<path d="M6.47819 24.0558L2.39766 22.9623C1.38178 22.69 0.337591 23.293 0.0654029 24.3088C-0.206912 25.3247 0.395989 26.3689 1.412 26.641L5.49253 27.7345C6.50841 28.0068 7.5526 27.4038 7.82478 26.388C8.09697 25.3721 7.49407 24.3278 6.47819 24.0558Z" fill="white"/>
<path d="M63.5881 39.359L59.5076 38.2655C58.4917 37.9932 57.4475 38.5962 57.1753 39.612C56.903 40.6279 57.5059 41.6721 58.5219 41.9442L62.6024 43.0377C63.6183 43.31 64.6625 42.707 64.9347 41.6912C65.207 40.6753 64.6041 39.6312 63.5881 39.359Z" fill="white"/>
<path d="M23.5558 6.97815C23.8279 7.99403 24.8722 8.59693 25.8881 8.32474C26.9039 8.05255 27.5068 7.00836 27.2347 5.99248L26.1413 1.91195C25.8693 0.896073 24.825 0.293172 23.8091 0.565359C22.7932 0.837547 22.1903 1.88174 22.4625 2.89762L23.5558 6.97815Z" fill="white"/>
<path d="M41.4443 59.0219C41.1722 58.006 40.1279 57.4031 39.112 57.6753C38.0961 57.9475 37.4932 58.9916 37.7654 60.0075L38.8588 64.0881C39.1308 65.1039 40.1751 65.7068 41.191 65.4346C42.2069 65.1625 42.8098 64.1183 42.5376 63.1024L41.4443 59.0219Z" fill="white"/>
<path d="M59.5076 27.7345L63.5881 26.641C64.604 26.3689 65.2069 25.3247 64.9347 24.3088C64.6625 23.293 63.6183 22.69 62.6024 22.9623L58.5219 24.0558C57.506 24.328 56.9031 25.3721 57.1753 26.388C57.4475 27.4038 58.4917 28.0068 59.5076 27.7345Z" fill="white"/>
<path d="M5.49253 38.2655L1.412 39.359C0.395989 39.6312 -0.206912 40.6753 0.0654029 41.6912C0.337591 42.707 1.38178 43.31 2.39766 43.0377L6.47819 41.9442C7.49407 41.6721 8.09697 40.6279 7.82478 39.612C7.5526 38.5962 6.50841 37.9932 5.49253 38.2655Z" fill="white"/>
</svg>
