<svg width="42" height="40" viewBox="0 0 42 40" fill="none" xmlns="http://www.w3.org/2000/svg">
<path d="M26.1882 10.1429C27.2935 10.1429 28.1927 9.24373 28.1927 8.13847C28.1927 7.0332 27.2935 6.13392 26.1882 6.13392C25.083 6.13392 24.1838 7.0332 24.1838 8.13847C24.1838 8.58988 24.3339 9.0068 24.5867 9.34227L21.2932 13.9446C21.0967 13.8801 20.8871 13.8446 20.6691 13.8446C20.1424 13.8446 19.6628 14.0492 19.3047 14.3826L17.1095 13.1369C17.1388 13.0009 17.1545 12.86 17.1545 12.7154C17.1545 11.6101 16.2553 10.7109 15.15 10.7109C14.0448 10.7109 13.1456 11.6101 13.1456 12.7154C13.1456 12.86 13.1613 13.0009 13.1905 13.1369L10.9953 14.3826C10.6372 14.0492 10.1576 13.8447 9.63092 13.8447C8.52565 13.8447 7.62645 14.744 7.62645 15.8493C7.62645 16.9545 8.52565 17.8538 9.63092 17.8538C10.7362 17.8538 11.6354 16.9545 11.6354 15.8493C11.6354 15.7047 11.6197 15.5637 11.5904 15.4278L13.7856 14.1821C14.1437 14.5155 14.6233 14.72 15.15 14.72C15.6767 14.72 16.1563 14.5155 16.5144 14.1822L18.7096 15.4278C18.6804 15.5638 18.6647 15.7048 18.6647 15.8493C18.6647 16.9546 19.5639 17.8539 20.6691 17.8539C21.7745 17.8539 22.6737 16.9546 22.6737 15.8493C22.6737 15.3979 22.5235 14.9808 22.2707 14.6454L25.5641 10.043C25.7606 10.1075 25.9703 10.1429 26.1882 10.1429ZM26.1882 7.3366C26.6303 7.3366 26.99 7.69628 26.99 8.13847C26.99 8.58057 26.6303 8.94026 26.1882 8.94026C25.7461 8.94026 25.3865 8.58057 25.3865 8.13847C25.3864 7.69628 25.7461 7.3366 26.1882 7.3366ZM9.63068 16.651C9.18857 16.651 8.82889 16.2913 8.82889 15.8491C8.82889 15.4069 9.18857 15.0472 9.63068 15.0472C10.0728 15.0472 10.4325 15.4069 10.4325 15.8491C10.4325 16.2913 10.0728 16.651 9.63068 16.651ZM15.1499 13.5172C14.7078 13.5172 14.3481 13.1575 14.3481 12.7153C14.3481 12.2732 14.7078 11.9135 15.1499 11.9135C15.592 11.9135 15.9517 12.2732 15.9517 12.7153C15.9517 13.1575 15.592 13.5172 15.1499 13.5172ZM20.6691 16.651C20.2269 16.651 19.8673 16.2913 19.8673 15.8491C19.8673 15.4069 20.2269 15.0472 20.6691 15.0472C21.1112 15.0472 21.4709 15.4069 21.4709 15.8491C21.4709 16.2913 21.1112 16.651 20.6691 16.651Z" fill="white"/>
<path d="M33.5786 29.6988H1.70099C1.42622 29.6988 1.20268 29.4753 1.20268 29.2005V4.39163C1.20268 4.11686 1.42622 3.89332 1.70099 3.89332H4.5358C4.8679 3.89332 5.13714 3.62416 5.13714 3.29198C5.13714 2.9598 4.8679 2.69064 4.5358 2.69064H1.70099C0.763062 2.69064 0 3.4537 0 4.39163V29.2005C0 30.1384 0.763062 30.9015 1.70099 30.9015H5.84728V32.2249C5.84728 32.9788 6.46065 33.5922 7.21457 33.5922H13.2339L10.4004 39.1244C10.249 39.42 10.3658 39.7823 10.6615 39.9338C10.7492 39.9788 10.8428 40 10.9351 40C11.1536 40 11.3644 39.8805 11.4708 39.6726L14.5852 33.5922H21.2338L24.3481 39.6726C24.4546 39.8805 24.6653 40 24.8838 40C24.9761 40 25.0697 39.9786 25.1575 39.9338C25.4531 39.7823 25.57 39.42 25.4185 39.1244L22.585 33.5922H28.6044C29.3583 33.5922 29.9716 32.9789 29.9716 32.2249V30.9015H33.5786C33.9107 30.9015 34.1799 30.6323 34.1799 30.3001C34.1799 29.9679 33.9107 29.6988 33.5786 29.6988ZM28.769 32.2249C28.769 32.3157 28.6951 32.3895 28.6044 32.3895H7.21457C7.12381 32.3895 7.04996 32.3157 7.04996 32.2249V30.9015H28.769V32.2249Z" fill="white"/>
<path d="M6.94116 3.89332H34.1178C34.3926 3.89332 34.6162 4.11686 34.6162 4.39163V10.1093C34.6162 10.4414 34.8854 10.7106 35.2175 10.7106C35.5496 10.7106 35.8188 10.4414 35.8188 10.1093V4.39163C35.8188 3.4537 35.0558 2.69064 34.1178 2.69064H21.247V1.50864C21.247 0.676789 20.5702 0 19.7383 0H16.0807C15.2488 0 14.5719 0.676789 14.5719 1.50864V2.69064H6.94116C6.60906 2.69064 6.33982 2.9598 6.33982 3.29198C6.33982 3.62416 6.60906 3.89332 6.94116 3.89332ZM15.7746 1.50864C15.7746 1.33995 15.9119 1.20268 16.0807 1.20268H19.7383C19.907 1.20268 20.0443 1.33995 20.0443 1.50864V2.69064H15.7747L15.7746 1.50864Z" fill="white"/>
<path d="M8.41092 20.9281C8.07882 20.9281 7.80958 21.1973 7.80958 21.5294V26.8431C7.80958 27.1752 8.07882 27.4444 8.41092 27.4444H10.8505C11.1826 27.4444 11.4519 27.1752 11.4519 26.8431V21.5294C11.4519 21.1973 11.1826 20.9281 10.8505 20.9281H8.41092ZM10.2492 26.2418H9.01226V22.1309H10.2492V26.2418Z" fill="white"/>
<path d="M13.93 17.855C13.5979 17.855 13.3287 18.1242 13.3287 18.4564V26.8431C13.3287 27.1753 13.5979 27.4445 13.93 27.4445H16.3696C16.7017 27.4445 16.971 27.1753 16.971 26.8431V18.4564C16.971 18.1242 16.7017 17.855 16.3696 17.855H13.93ZM15.7684 26.2418H14.5314V19.0577H15.7684V26.2418Z" fill="white"/>
<path d="M19.4492 20.9281C19.1171 20.9281 18.8479 21.1973 18.8479 21.5294V26.8431C18.8479 27.1752 19.1171 27.4444 19.4492 27.4444H21.8888C22.2209 27.4444 22.4902 27.1752 22.4902 26.8431V21.5294C22.4902 21.1973 22.2209 20.9281 21.8888 20.9281H19.4492ZM21.2875 26.2418H20.0506V22.1309H21.2875V26.2418Z" fill="white"/>
<path d="M24.9684 24.4765C24.6363 24.4765 24.3671 24.7457 24.3671 25.0778V26.8431C24.3671 27.1753 24.6363 27.4445 24.9684 27.4445H27.408C27.7401 27.4445 28.0093 27.1753 28.0093 26.8431C28.0093 26.511 27.7401 26.2418 27.408 26.2418H25.5697V25.0778C25.5697 24.7457 25.3005 24.4765 24.9684 24.4765Z" fill="white"/>
<path d="M40.7449 30.2644L37.295 24.289C38.169 23.3574 38.8055 22.2191 39.1455 20.9503C39.6888 18.9225 39.41 16.8044 38.3603 14.9863C36.1934 11.2329 31.3769 9.94257 27.6238 12.1094C23.8705 14.2762 22.58 19.0927 24.747 22.8459C25.7967 24.664 27.4916 25.9645 29.5194 26.508C30.1965 26.6894 30.8836 26.7792 31.5663 26.7792C32.163 26.7792 32.7563 26.7105 33.3364 26.5747L36.7856 32.5503C37.2083 33.2829 37.9782 33.6928 38.7689 33.6927C39.1564 33.6927 39.549 33.5942 39.9081 33.387C40.6134 32.9799 41.0516 32.2209 41.0516 31.4061C41.0516 31.0069 40.9456 30.6122 40.7449 30.2644ZM29.8306 25.3463C28.1131 24.8861 26.6775 23.7845 25.7884 22.2446C23.9531 19.0656 25.0462 14.9863 28.225 13.1509C29.2708 12.5472 30.4136 12.2605 31.5423 12.2605C33.8447 12.2605 36.0871 13.4546 37.3187 15.5876C38.2077 17.1276 38.4439 18.9215 37.9837 20.6391C37.5234 22.3567 36.4219 23.7921 34.882 24.6812C33.3421 25.5703 31.5482 25.8063 29.8306 25.3463ZM39.307 32.3453C38.7896 32.6441 38.1257 32.4662 37.8272 31.9491L34.5088 26.1999C34.8414 26.0642 35.1671 25.9054 35.4835 25.7228C35.8001 25.54 36.0999 25.3365 36.3839 25.1162L39.7033 30.8655C39.7985 31.0308 39.8489 31.2178 39.8489 31.4062C39.8489 31.7925 39.6412 32.1524 39.307 32.3453Z" fill="white"/>
<path d="M37.0059 20.6102C37.4304 19.2427 37.3293 17.7786 36.7212 16.4877C36.5796 16.1872 36.2213 16.0585 35.9209 16.2C35.6204 16.3416 35.4916 16.6998 35.6332 17.0002C36.1129 18.0185 36.1926 19.1738 35.8573 20.2535C35.5203 21.3391 34.7921 22.2502 33.8069 22.819C32.7644 23.4209 31.5498 23.5807 30.3871 23.2692C29.2244 22.9576 28.2524 22.2119 27.6506 21.1694C26.4081 19.0173 27.1481 16.2556 29.3002 15.0131C30.8737 14.1047 32.8265 14.2261 34.2754 15.3223C34.5403 15.5228 34.9174 15.4706 35.1178 15.2057C35.3181 14.9408 35.2659 14.5637 35.001 14.3633C33.1656 12.9745 30.6918 12.8208 28.6988 13.9715C27.3781 14.734 26.4333 15.9652 26.0386 17.4382C25.6439 18.9113 25.8465 20.4499 26.609 21.7706C27.3715 23.0914 28.6027 24.0361 30.0758 24.4309C30.5677 24.5627 31.0669 24.6279 31.5628 24.6279C32.552 24.6279 33.5285 24.3684 34.4082 23.8605C35.6563 23.14 36.5789 21.9857 37.0059 20.6102Z" fill="white"/>
</svg>
