<svg width="45" height="45" viewBox="0 0 45 45" fill="none" xmlns="http://www.w3.org/2000/svg">
<path d="M43.736 14.5663C42.7692 14.0351 41.2964 14.142 40.3477 15.6332C40.3449 15.6377 40.3421 15.6422 40.3393 15.6467L36.8129 21.4182C36.388 21.1733 35.9002 21.0648 35.4054 21.109C34.7841 21.1646 34.2251 21.4562 33.8315 21.93C33.5795 22.2333 32.7468 23.2734 31.8654 24.3745C31.0304 25.4178 30.1668 26.4966 29.9258 26.7867C27.6718 29.4178 24.1887 30.4911 22.4936 33.9C20.7989 30.4914 17.3151 29.4175 15.0615 26.7867C14.5624 26.1853 11.6327 22.5029 11.1557 21.9299C10.7622 21.4561 10.2033 21.1646 9.58199 21.1089C9.08647 21.0647 8.59929 21.1732 8.17444 21.4181L4.64795 15.6466C4.64522 15.642 4.64241 15.6375 4.63951 15.6331C3.69083 14.1419 2.21814 14.0348 1.25136 14.5662C0.105712 15.1961 -0.321784 16.6014 0.256971 17.8353C0.258289 17.838 0.259607 17.8407 0.260926 17.8436C1.50588 20.6248 3.59538 25.8405 5.01849 28.9267C6.3567 31.8704 6.9569 32.6975 9.29995 34.8272L12.461 37.7004V37.9688H11.9468C11.4615 37.9688 11.0679 38.3624 11.0679 38.8477V44.1211C11.0679 44.6064 11.4615 45 11.9468 45H33.0404C33.5257 45 33.9193 44.6064 33.9193 44.1211V38.8477C33.9193 38.3624 33.5257 37.9688 33.0404 37.9688H32.5263V37.7004L35.6874 34.8272C38.0303 32.6975 38.6305 31.8702 39.9688 28.9267C41.3869 25.8517 43.4868 20.6128 44.7264 17.8436C44.7277 17.8408 44.729 17.8381 44.7304 17.8353C45.309 16.6014 44.8815 15.1961 43.736 14.5663ZM13.931 36.6611L10.4823 33.5263C8.32376 31.5645 7.85443 30.9172 6.6187 28.1992C5.20561 25.1375 3.07973 19.8276 1.84699 17.0858C1.60072 16.5574 1.88864 16.2219 2.09791 16.1068C2.44868 15.9142 2.84243 16.0873 3.15224 16.5705L7.07238 22.9862C7.0004 23.4565 7.05946 24.0409 7.34511 24.7629C8.16556 26.8361 9.18235 28.9067 10.135 30.444C10.3907 30.8566 10.9322 30.984 11.3451 30.7281C11.7576 30.4725 11.8849 29.9308 11.6291 29.518C10.7291 28.0656 9.76331 26.0966 8.97959 24.1162C8.64464 23.2696 8.86718 23.0826 8.95094 23.0122C9.08603 22.8986 9.25434 22.8442 9.42511 22.8599C9.5768 22.8734 9.71128 22.9422 9.80365 23.0533C10.0454 23.3443 10.9117 24.4265 11.7495 25.4731C12.6282 26.5706 13.458 27.6075 13.7095 27.9101C14.6874 29.0872 15.8955 29.9636 17.0637 30.8114C19.3277 32.4542 21.2843 33.874 21.6147 37.171V37.9686H14.2188V37.3114C14.2187 37.0639 14.1143 36.8277 13.931 36.6611ZM12.8257 39.7265H21.6147V43.2421H12.8257V39.7265ZM32.1615 43.2421H23.3725V39.7265H32.1615V43.2421ZM43.1403 17.0858C41.903 19.8379 39.7854 25.1288 38.3686 28.1992C37.1331 30.9172 36.6637 31.5644 34.505 33.5264L31.0563 36.6611C30.873 36.8277 30.7686 37.0639 30.7686 37.3115V37.9687H23.3726V37.1711C23.8278 32.1351 28.5267 31.2461 31.278 27.91C31.5293 27.6075 32.3592 26.5707 33.2379 25.4731C34.0756 24.4265 34.942 23.3442 35.1837 23.0533C35.2761 22.9421 35.4105 22.8734 35.5623 22.8599C35.7329 22.8442 35.9013 22.8986 36.0365 23.0122C36.1202 23.0826 36.3427 23.2696 36.0077 24.1161C35.2241 26.0966 34.2584 28.0655 33.3582 29.518C33.1025 29.9306 33.2297 30.4723 33.6423 30.7281C34.0548 30.9837 34.5965 30.8565 34.8523 30.444C35.8051 28.9068 36.8218 26.8361 37.6422 24.7629C37.9279 24.0409 37.987 23.4565 37.915 22.9861L41.835 16.5706C42.1447 16.0875 42.5386 15.914 42.8895 16.1068C43.0985 16.2218 43.3863 16.5574 43.1403 17.0858Z" fill="white"/>
<path d="M17.5354 18.7234C17.2345 18.8629 17.0257 19.1677 17.0257 19.5211V24.11C17.0257 24.5953 17.4193 24.9889 17.9046 24.9889H27.0824C27.5678 24.9889 27.9613 24.5953 27.9613 24.11V19.5211C27.9613 19.1676 27.7526 18.8629 27.4517 18.7234C27.4578 17.5796 27.5956 17.2506 29.6841 14.5113C34.2171 8.68042 29.8856 -0.0623304 22.4934 0.000335008C17.5106 0.000247118 13.4567 4.05416 13.4567 9.03716C13.3681 14.1991 17.6516 15.9347 17.5354 18.7234ZM26.2035 23.2311H18.7836V20.4H26.2036L26.2035 23.2311ZM22.4936 1.75804C28.4481 1.70803 31.9363 8.74959 28.2863 13.4455C26.1608 16.2333 25.7227 16.9449 25.6951 18.6422H23.3724V11.0328L24.7467 9.65854C25.0899 9.31533 25.0899 8.75882 24.7467 8.41552C24.4034 8.0724 23.847 8.0724 23.5036 8.41552L22.4935 9.42564L21.4835 8.41552C21.1403 8.07248 20.5839 8.0724 20.2405 8.41552C19.8973 8.75873 19.8973 9.31525 20.2405 9.65854L21.6146 11.0327V18.6421H19.292C19.2645 16.9447 18.8262 16.2331 16.7007 13.4455C13.0499 8.74853 16.5413 1.70742 22.4936 1.75804Z" fill="white"/>
<path d="M7.93002 9.91599H10.3805C11.5454 9.87274 11.5445 8.20107 10.3805 8.15818H7.93002C6.76521 8.20151 6.76609 9.87318 7.93002 9.91599Z" fill="white"/>
<path d="M11.5631 14.3295L9.44093 15.5547C9.02055 15.7974 8.8765 16.3349 9.11925 16.7553C9.36324 17.1796 9.90693 17.3175 10.3198 17.077L12.442 15.8518C12.8624 15.6091 13.0065 15.0716 12.7637 14.6512C12.5213 14.231 11.9837 14.0868 11.5631 14.3295Z" fill="white"/>
<path d="M32.5333 15.8518L34.6555 17.077C35.0684 17.3175 35.612 17.1796 35.8561 16.7553C36.0988 16.3349 35.9548 15.7975 35.5344 15.5547L33.4122 14.3295C32.9917 14.0868 32.4543 14.2309 32.2116 14.6512C31.9688 15.0717 32.1129 15.6091 32.5333 15.8518Z" fill="white"/>
<path d="M33.7158 9.03708C33.7158 9.52241 34.1094 9.91599 34.5947 9.91599H37.0452C38.2101 9.87274 38.2092 8.20107 37.0452 8.15818H34.5947C34.1094 8.15818 33.7158 8.55175 33.7158 9.03708Z" fill="white"/>
<path d="M32.9736 3.86268C33.1227 3.86268 33.2738 3.82462 33.4122 3.74473L35.5344 2.51953C35.9548 2.27678 36.0988 1.73933 35.8561 1.31895C35.6134 0.898657 35.0759 0.754516 34.6555 0.99727L32.5333 2.22246C32.1129 2.46522 31.9688 3.00267 32.2116 3.42305C32.3744 3.705 32.6698 3.86268 32.9736 3.86268Z" fill="white"/>
<path d="M9.44093 2.51944L11.5631 3.74473C11.9761 3.98528 12.5196 3.84729 12.7637 3.42305C13.0065 3.00267 12.8624 2.46522 12.442 2.22246L10.3198 0.997182C9.89937 0.754428 9.36201 0.898569 9.11925 1.31886C8.8765 1.73924 9.02055 2.27669 9.44093 2.51944Z" fill="white"/>
</svg>
