<svg width="45" height="45" viewBox="0 0 45 45" fill="none" xmlns="http://www.w3.org/2000/svg">
<path d="M32.6375 14.502H39.0634C39.6658 15.3019 40.6238 15.8203 41.7009 15.8203C43.5201 15.8203 45 14.3418 45 12.5244C45 10.707 43.5201 9.22852 41.7009 9.22852C40.6238 9.22852 39.6658 9.74689 39.0634 10.547L39.0616 10.5469H32.6376C32.4394 10.2837 32.2023 10.0515 31.9355 9.85772V7.58672L34.295 5.22949H39.0316C39.6319 6.05417 40.6044 6.5918 41.7009 6.5918C43.5201 6.5918 45 5.1133 45 3.2959C45 1.4785 43.52 0 41.7008 0C40.6438 0 39.7021 0.499658 39.0979 1.27441H33.475C32.9463 1.27441 32.4492 1.48008 32.0753 1.85361L28.5562 5.36924C28.1823 5.74277 27.9765 6.23936 27.9765 6.76758V9.92408C26.9831 10.6842 26.4344 12.1206 26.8358 13.4557L24.2994 16.8541C23.7251 16.6687 23.1132 16.5675 22.478 16.5675C19.2035 16.5675 16.5396 19.2288 16.5396 22.5001C16.5396 25.7714 19.2035 28.4327 22.478 28.4327C23.1025 28.4327 23.7045 28.3353 24.2704 28.1559L26.8319 31.5578C26.7471 31.8494 26.7008 32.1571 26.7008 32.4756C26.7008 33.5315 27.201 34.4724 27.9765 35.0759V38.2324C27.9765 38.7606 28.1823 39.2572 28.5562 39.6308L32.0753 43.1464C32.4492 43.5199 32.9463 43.7256 33.475 43.7256H39.0979C39.7022 44.5003 40.6438 45 41.7008 45C43.52 45 44.9999 43.5215 44.9999 41.7041C44.9999 39.8867 43.52 38.4082 41.7008 38.4082C40.6043 38.4082 39.6317 38.9458 39.0315 39.7705H34.2949L31.9354 37.4133V35.1423C32.2022 34.9485 32.4393 34.7163 32.6375 34.4531H39.0634C39.6658 35.2531 40.6238 35.7715 41.7009 35.7715C43.5201 35.7715 45 34.293 45 32.4756C45 30.6582 43.5201 29.1797 41.7009 29.1797C40.6238 29.1797 39.6658 29.6981 39.0634 30.4981L39.0616 30.498H32.6376C32.0351 29.6981 31.0771 29.1797 30 29.1797C29.9985 29.1797 29.997 29.1798 29.9955 29.1798L27.4289 25.7711C27.6946 25.3711 27.9128 24.9373 28.076 24.4775H39.0616L39.0634 24.4775C39.6658 25.2775 40.6239 25.7959 41.7009 25.7959C43.5201 25.7959 45 24.3174 45 22.5C45 20.6826 43.5201 19.2041 41.7009 19.2041C40.6238 19.2041 39.6658 19.7225 39.0634 20.5225L39.0616 20.5225H35.2317C34.8673 20.5225 34.5719 20.8176 34.5719 21.1816C34.5719 21.5457 34.8673 21.8408 35.2317 21.8408H38.4681C38.4032 22.1798 38.3654 22.6266 38.4681 23.1592H28.3788C28.4151 22.8142 28.4368 22.3788 28.3788 21.8408H32.0674C32.4318 21.8408 32.7272 21.5457 32.7272 21.1816C32.7272 20.8176 32.4318 20.5225 32.0674 20.5225H28.0759C27.9162 20.0726 27.7036 19.6479 27.4456 19.2552L30.0094 15.8201C31.0826 15.8171 32.0367 15.2996 32.6375 14.502ZM41.7008 10.5469C42.7923 10.5469 43.6803 11.434 43.6803 12.5244C43.6803 13.6149 42.7923 14.502 41.7008 14.502C40.6093 14.502 39.7213 13.6149 39.7213 12.5244C39.7213 11.434 40.6093 10.5469 41.7008 10.5469ZM33.2326 11.8652H38.468C38.4031 12.2042 38.3653 12.6511 38.468 13.1836H33.2326C33.2761 12.9705 33.2991 12.7501 33.2991 12.5244C33.2991 12.2987 33.2761 12.0783 33.2326 11.8652ZM41.7008 1.31836C42.7923 1.31836 43.6803 2.20544 43.6803 3.2959C43.6803 4.38636 42.7923 5.27344 41.7008 5.27344C40.6093 5.27344 39.7213 4.38636 39.7213 3.2959C39.7213 2.20544 40.6093 1.31836 41.7008 1.31836ZM41.7008 39.7266C42.7923 39.7266 43.6803 40.6136 43.6803 41.7041C43.6803 42.7946 42.7923 43.6816 41.7008 43.6816C40.6093 43.6816 39.7213 42.7946 39.7213 41.7041C39.7213 40.6136 40.6093 39.7266 41.7008 39.7266ZM41.7008 30.498C42.7923 30.498 43.6803 31.3851 43.6803 32.4756C43.6803 33.566 42.7923 34.4531 41.7008 34.4531C40.6093 34.4531 39.7213 33.566 39.7213 32.4756C39.7213 31.3851 40.6093 30.498 41.7008 30.498ZM33.2326 31.8164H38.468C38.4031 32.1554 38.3653 32.6022 38.468 33.1348H33.2326C33.2976 32.7958 33.3353 32.3489 33.2326 31.8164ZM41.7008 20.5225C42.7923 20.5225 43.6803 21.4095 43.6803 22.5C43.6803 23.5905 42.7923 24.4775 41.7008 24.4775C40.6093 24.4775 39.7213 23.5905 39.7213 22.5C39.7213 21.4095 40.6093 20.5225 41.7008 20.5225ZM29.2961 6.76758C29.2961 6.59153 29.3647 6.42603 29.4894 6.30149L33.0085 2.78587C33.1331 2.66133 33.2988 2.59277 33.475 2.59277H38.4781C38.4285 2.81944 38.4017 3.05455 38.4017 3.2959C38.4017 3.50622 38.4224 3.71171 38.4602 3.91113H34.0216C33.8466 3.91113 33.6788 3.98057 33.5551 4.10423L30.8091 6.84756C30.6853 6.97113 30.6158 7.13883 30.6158 7.31364V9.28696C30.2639 9.22439 29.8391 9.19485 29.2961 9.3048V6.76758ZM22.478 27.1143C19.9311 27.1143 17.8592 25.0443 17.8592 22.5C17.8592 19.9557 19.9311 17.8857 22.478 17.8857C25.0248 17.8857 27.0967 19.9557 27.0967 22.5C27.0967 25.0443 25.0248 27.1143 22.478 27.1143ZM33.5551 40.8958C33.6788 41.0194 33.8466 41.0889 34.0216 41.0889H38.4602C38.3975 41.4404 38.368 41.8648 38.4781 42.4072H33.475C33.2988 42.4072 33.133 42.3387 33.0085 42.2141L29.4894 38.6985C29.3647 38.574 29.2961 38.4085 29.2961 38.2324V35.6952C29.623 35.7637 30.1019 35.8095 30.6158 35.713V37.6864C30.6158 37.8612 30.6853 38.0289 30.8091 38.1524L33.5551 40.8958ZM29.9999 30.498C31.0915 30.498 31.9794 31.3851 31.9794 32.4756C31.9794 33.566 31.0915 34.4531 29.9999 34.4531C28.9084 34.4531 28.0205 33.566 28.0205 32.4756C28.0205 31.3851 28.9084 30.498 29.9999 30.498ZM28.5845 29.4991C28.1816 29.6911 27.8238 29.9626 27.5309 30.293L25.5044 27.6016C25.8847 27.3756 26.2372 27.1081 26.5566 26.8059L28.5845 29.4991ZM26.577 18.2135C26.2588 17.9097 25.9079 17.6402 25.5287 17.4124L27.54 14.7175C27.8343 15.0466 28.1933 15.3163 28.5972 15.5066L26.577 18.2135ZM28.0205 12.5244C28.0205 11.434 28.9084 10.5469 29.9999 10.5469C31.0915 10.5469 31.9794 11.434 31.9794 12.5244C31.9794 13.6149 31.0915 14.502 29.9999 14.502C28.9084 14.502 28.0205 13.6149 28.0205 12.5244Z" fill="white"/>
<path d="M20.8944 43.6816H20.0313C19.4201 43.6816 18.9228 43.1849 18.9228 42.5742V40.6714C18.9228 39.6236 18.2541 38.6985 17.259 38.3696C16.4917 38.1157 15.7367 37.8032 15.015 37.4406C14.0766 36.9689 12.9478 37.1496 12.2065 37.8904L10.8587 39.2368C10.6493 39.446 10.3708 39.5612 10.0746 39.5612C9.7784 39.5612 9.49995 39.446 9.29048 39.2367L5.76826 35.7188C5.33638 35.2867 5.33638 34.5836 5.76782 34.1521L7.11676 32.8054C7.85822 32.0646 8.03902 30.9371 7.56694 29.9997C7.20394 29.2787 6.89101 28.5244 6.63694 27.758C6.30764 26.7637 5.38169 26.0956 4.33284 26.0956H2.42815C1.81689 26.0956 1.31965 25.5988 1.31965 24.9882V20.0118C1.31965 19.4012 1.81689 18.9044 2.42815 18.9044H4.33284C5.38169 18.9044 6.30764 18.2363 6.63685 17.2422C6.89101 16.4756 7.20386 15.7213 7.56676 15.0004C8.03893 14.0629 7.85814 12.9353 7.11641 12.1944L5.76826 10.8483C5.33638 10.4163 5.33638 9.71323 5.76799 9.28151L9.2903 5.76264C9.72288 5.33109 10.4266 5.33109 10.8585 5.7622L12.2065 7.10974C12.948 7.85039 14.0767 8.03127 15.0149 7.55947C15.7367 7.19684 16.4917 6.88421 17.2589 6.63047C18.2541 6.30149 18.9228 5.37645 18.9228 4.32861V2.42578C18.9228 1.81512 19.4201 1.31836 20.0313 1.31836H24.9246C25.4695 1.31836 25.9408 1.72336 26.0209 2.26063C26.026 2.29544 26.0214 2.33297 26.0073 2.36927L25.3384 4.09746C25.207 4.43707 25.376 4.81878 25.7158 4.95C26.0558 5.08122 26.4379 4.91247 26.5692 4.57295L27.2381 2.84476C27.3345 2.59567 27.3649 2.32646 27.3261 2.06622C27.1505 0.888223 26.1181 0 24.9246 0H20.0313C18.6924 0 17.6032 1.08817 17.6032 2.42578V4.32861C17.6032 4.80674 17.2983 5.22879 16.8441 5.37891C16.0159 5.65295 15.201 5.99036 14.4219 6.38174C13.993 6.59733 13.4777 6.51524 13.1397 6.17766L11.7915 4.82985C10.8448 3.88529 9.30438 3.88529 8.35749 4.83012L4.83457 8.34961C3.88908 9.2954 3.88908 10.8342 4.83501 11.7804L6.18351 13.1267C6.5216 13.4645 6.60377 13.9794 6.38796 14.4079C5.99621 15.1862 5.65846 16.0003 5.38407 16.8279C5.23389 17.2814 4.81143 17.586 4.33284 17.586H2.42815C1.08924 17.586 0 18.6742 0 20.0118V24.9882C0 26.3258 1.08924 27.414 2.42815 27.414H4.33284C4.81143 27.414 5.23389 27.7186 5.38415 28.1723C5.65846 28.9997 5.99621 29.8138 6.38796 30.5922C6.60377 31.0206 6.5216 31.5354 6.18368 31.8731L4.83457 33.22C3.88908 34.1658 3.88908 35.7046 4.83492 36.6507L8.35749 40.1689C9.30429 41.1149 10.8448 41.1149 11.7918 40.1689L13.1396 38.8224C13.4777 38.4847 13.9931 38.4026 14.4221 38.6183C15.2011 39.0096 16.016 39.347 16.8444 39.6212C17.2984 39.7712 17.6033 40.1933 17.6033 40.6714V42.5742C17.6033 43.9118 18.6925 45 20.0314 45H20.8945C21.2589 45 21.5543 44.7049 21.5543 44.3408C21.5543 43.9768 21.2588 43.6816 20.8944 43.6816Z" fill="white"/>
<path d="M23.3033 31.9056C23.0876 31.3441 22.5607 30.958 21.9607 30.922C17.4901 30.654 13.9882 26.9353 13.9882 22.4561C13.9882 17.976 17.4908 14.2572 21.9623 13.99C22.5605 13.9542 23.0869 13.5696 23.3034 13.0103L25.458 7.4439C25.5894 7.10437 25.4204 6.72258 25.0806 6.59136C24.7407 6.46005 24.3585 6.62889 24.2272 6.96841L23.524 8.7852C23.1771 8.75918 22.8261 8.7452 22.478 8.7452C14.8861 8.7452 8.70966 14.9157 8.70966 22.5001C8.70966 25.6056 9.72069 28.5365 11.6334 30.9757C11.7635 31.1418 11.9574 31.2284 12.1532 31.2284C12.2956 31.2284 12.439 31.1826 12.5597 31.0881C12.8466 30.8636 12.8969 30.4493 12.6722 30.1627C10.9432 27.9577 10.0293 25.3079 10.0293 22.5C10.0293 15.6425 15.6138 10.0635 22.478 10.0635C22.6597 10.0635 22.8424 10.0675 23.0246 10.0753L22.0727 12.5348C22.0419 12.6143 21.9677 12.6689 21.8837 12.674C16.7163 12.9828 12.6686 17.2796 12.6686 22.4561C12.6686 27.6316 16.7155 31.9283 21.8817 32.238C21.9661 32.2431 22.0405 32.298 22.0712 32.3779L23.0484 34.923C20.118 35.0758 17.0507 34.1056 14.7382 32.2414C14.4529 32.0148 14.0379 32.0621 13.8111 32.3472C13.5843 32.6322 13.6318 33.0469 13.9171 33.2734C16.6289 35.4369 20.0421 36.4758 23.5441 36.2141L26.0077 42.6305C26.0216 42.6665 26.0261 42.704 26.0209 42.7389C25.9412 43.2764 25.4699 43.6816 24.9246 43.6816H23.9736C23.6092 43.6816 23.3137 43.9768 23.3137 44.3408C23.3137 44.7049 23.6092 45 23.9736 45H24.9246C26.1188 45 27.1514 44.1112 27.3263 42.9323C27.3648 42.6732 27.3349 42.4055 27.2398 42.1581L23.3033 31.9056Z" fill="white"/>
</svg>
