<svg width="47" height="45" viewBox="0 0 47 45" fill="none" xmlns="http://www.w3.org/2000/svg">
<path d="M9.3175 7.44081H7.8476C7.06631 7.44081 6.43062 8.0765 6.43062 8.85787V16.6275H4.90789C4.5312 16.6275 4.22582 16.9328 4.22582 17.3096C4.22582 17.6864 4.5312 17.9917 4.90789 17.9917H24.0161C24.3928 17.9917 24.6982 17.6864 24.6982 17.3096C24.6982 16.9328 24.3928 16.6275 24.0161 16.6275H22.4934V7.38797C22.4934 6.6066 21.8577 5.971 21.0763 5.971H19.6064C18.8252 5.971 18.1895 6.6066 18.1895 7.38797V16.6275H16.6139V11.6139C16.6139 10.8325 15.9782 10.1969 15.1968 10.1969H13.7269C12.9456 10.1969 12.31 10.8325 12.31 11.6139V16.6275H10.7344V8.85787C10.7346 8.0765 10.0989 7.44081 9.3175 7.44081ZM7.79476 8.85787C7.79476 8.82868 7.8185 8.80495 7.8476 8.80495H9.3175C9.34669 8.80495 9.37043 8.82868 9.37043 8.85787V16.6275H7.79476V8.85787ZM19.5537 7.38797C19.5537 7.35887 19.5774 7.33514 19.6065 7.33514H21.0764C21.1056 7.33514 21.1294 7.35887 21.1294 7.38797V16.6275H19.5538L19.5537 7.38797ZM13.6743 11.6139C13.6743 11.5848 13.698 11.561 13.7271 11.561H15.197C15.2262 11.561 15.2499 11.5848 15.2499 11.6139V16.6275H13.6744L13.6743 11.6139Z" fill="white"/>
<path d="M45.4036 20.6282L44.2357 20.3849C44.1019 19.9859 43.9399 19.5953 43.7511 19.217L44.4054 18.2183C44.7813 17.6445 44.7021 16.8761 44.2171 16.3912L42.4809 14.655C41.9959 14.17 41.2273 14.0909 40.654 14.4668L39.6551 15.1212C39.2769 14.9324 38.8863 14.7703 38.4873 14.6365L38.244 13.4686C38.1041 12.797 37.5048 12.3098 36.8189 12.3098H34.3637C33.6778 12.3098 33.0785 12.797 32.9386 13.4686L32.6952 14.6365C32.2962 14.7703 31.9056 14.9324 31.5274 15.1212L30.5287 14.4669C30.0363 14.1442 29.4011 14.1576 28.9241 14.4743V2.5191C28.9241 1.13014 27.7941 0 26.405 0H2.1517C0.965262 0 0 0.965262 0 2.1517V4.17062C0 4.54739 0.305384 4.85268 0.682068 4.85268C1.05875 4.85268 1.36414 4.54739 1.36414 4.17062V2.1517C1.36414 1.71745 1.71745 1.36414 2.1517 1.36414H26.4051C27.0419 1.36414 27.5601 1.88223 27.5601 2.5191V15.7967L26.9656 16.3912C26.4806 16.8761 26.4013 17.6445 26.7772 18.2183L27.4316 19.217C27.2429 19.5952 27.0807 19.9858 26.9469 20.3849L25.7791 20.6282C25.1075 20.768 24.6202 21.3674 24.6202 22.0533V22.5992H11.0931C10.8983 22.5992 10.7128 22.6825 10.5834 22.8282L5.95763 28.0317V23.2812C5.95763 22.9045 5.65225 22.5992 5.27557 22.5992H2.1517C1.71745 22.5992 1.36414 22.2454 1.36414 21.8107V7.36269C1.36414 6.98592 1.05875 6.68063 0.682068 6.68063C0.305384 6.68063 0 6.98592 0 7.36269V21.8107C0 22.9977 0.965262 23.9633 2.1517 23.9633H4.5935V28.1595C4.5935 28.8851 5.1838 29.4754 5.90943 29.4754C6.28694 29.4754 6.64634 29.3132 6.89297 29.0328L11.3994 23.9634H13.2312V32.391C13.2312 32.7678 13.5366 33.0731 13.9133 33.0731C14.29 33.0731 14.5953 32.7678 14.5953 32.391V23.9634H24.6202V24.5086C24.6202 25.1944 25.1075 25.7937 25.779 25.9338L26.9469 26.177C27.0806 26.5762 27.2428 26.9668 27.4315 27.3449L26.7772 28.3436C26.4013 28.9173 26.4805 29.6857 26.9655 30.1708L28.7016 31.9068C29.1865 32.3918 29.955 32.4711 30.5286 32.0951L31.5274 31.4408C31.9057 31.6296 32.2963 31.7916 32.6952 31.9254L32.9386 33.0934C33.0785 33.7649 33.6778 34.2522 34.3637 34.2522H36.8189C37.5048 34.2522 38.1041 33.7649 38.244 33.0934L38.4873 31.9254C38.8864 31.7916 39.277 31.6296 39.6551 31.4408L40.6539 32.0951C40.6984 32.1243 40.7444 32.1498 40.7912 32.1735V37.3365C40.7912 37.7707 40.4379 38.124 40.0036 38.124H36.8798C36.5031 38.124 36.1977 38.4293 36.1977 38.8061V43.5575L31.571 38.3529C31.4416 38.2073 31.2561 38.124 31.0613 38.124H15.3828C14.9486 38.124 14.5952 37.7707 14.5952 37.3365V35.583C14.5952 35.2062 14.2899 34.9009 13.9132 34.9009C13.5365 34.9009 13.2311 35.2062 13.2311 35.583V37.3363C13.2311 38.5227 14.1964 39.488 15.3828 39.488H30.755L35.2616 44.5576C35.5108 44.8388 35.8696 45 36.2459 45C36.9715 45 37.5618 44.4097 37.5618 43.6841V39.4881H40.0036C41.1901 39.4881 42.1553 38.5228 42.1553 37.3364V32.1499C42.2727 32.0855 42.3829 32.0048 42.481 31.9067L44.2172 30.1705C44.7021 29.6855 44.7813 28.9171 44.4054 28.3435L43.7511 27.3447C43.9398 26.9666 44.1019 26.5759 44.2357 26.1768L45.4038 25.9335C46.0751 25.7935 46.5625 25.1942 46.5625 24.5084V22.0532C46.5625 21.3674 46.0751 20.768 45.4036 20.6282ZM45.1983 24.5085C45.1983 24.5517 45.1677 24.5894 45.1255 24.5981L43.5642 24.9233C43.3158 24.975 43.1166 25.1605 43.0472 25.4047C42.8852 25.9747 42.6555 26.5282 42.3646 27.0499C42.2409 27.2716 42.2506 27.5436 42.3897 27.756L43.2645 29.0912C43.2881 29.1272 43.2831 29.1756 43.2526 29.206L41.5165 30.9422C41.486 30.9728 41.4378 30.9777 41.4016 30.954L40.0665 30.0794C39.8541 29.9402 39.5822 29.9305 39.3605 30.0543C38.8387 30.3452 38.2852 30.575 37.7152 30.737C37.4712 30.8064 37.2857 31.0054 37.234 31.254L36.9087 32.8153C36.8999 32.8575 36.8622 32.8881 36.8191 32.8881H34.3638C34.3207 32.8881 34.283 32.8575 34.2743 32.8153L33.949 31.254C33.8972 31.0055 33.7118 30.8064 33.4677 30.737C32.8978 30.575 32.3442 30.3453 31.8225 30.0543C31.719 29.9965 31.6046 29.9679 31.4902 29.9679C31.3597 29.9679 31.2296 30.0052 31.1165 30.0795L29.7813 30.9541C29.7454 30.9778 29.697 30.9729 29.6664 30.9422L27.9303 29.2062C27.8998 29.1757 27.8947 29.1274 27.9184 29.0913L28.7932 27.7561C28.9323 27.5438 28.9419 27.2718 28.8184 27.0501C28.5273 26.5283 28.2976 25.9748 28.1357 25.4047C28.0663 25.1606 27.8671 24.9751 27.6186 24.9234L26.0575 24.5983C26.0152 24.5894 25.9846 24.5517 25.9846 24.5086V22.0534C25.9846 22.0102 26.0152 21.9726 26.0574 21.9639L27.6186 21.6386C27.8671 21.5869 28.0663 21.4015 28.1357 21.1574C28.2976 20.5873 28.5273 20.0338 28.8184 19.512C28.9419 19.2902 28.9323 19.0182 28.7932 18.8059L27.9184 17.4708C27.8947 17.4347 27.8997 17.3864 27.9302 17.3558L29.6663 15.6197C29.6969 15.5892 29.7452 15.5842 29.7813 15.6079L31.1164 16.4826C31.3286 16.6215 31.6006 16.6314 31.8224 16.5077C32.3442 16.2167 32.8978 15.9869 33.4676 15.825C33.7117 15.7556 33.8971 15.5565 33.9489 15.308L34.2742 13.7467C34.283 13.7045 34.3206 13.6738 34.3637 13.6738H36.819C36.8621 13.6738 36.8999 13.7045 36.9086 13.7467L37.2339 15.308C37.2856 15.5564 37.4711 15.7556 37.7152 15.825C38.2851 15.9869 38.8387 16.2167 39.3604 16.5077C39.5821 16.6313 39.854 16.6215 40.0664 16.4826L41.4017 15.6078C41.4377 15.5842 41.4861 15.5892 41.5165 15.6196L43.2526 17.3559C43.2831 17.3864 43.2881 17.4346 43.2645 17.4708L42.3897 18.8059C42.2505 19.0182 42.2409 19.2902 42.3645 19.512C42.6555 20.0337 42.8852 20.5873 43.0472 21.1573C43.1166 21.4015 43.3158 21.5869 43.5642 21.6386L45.1255 21.9639C45.1677 21.9727 45.1983 22.0103 45.1983 22.0534L45.1983 24.5085Z" fill="white"/>
<path d="M35.5912 17.0872C34.5912 17.0872 33.5979 17.3312 32.7187 17.7928C32.3852 17.9679 32.2567 18.3802 32.4319 18.7138C32.6069 19.0472 33.0192 19.1756 33.3528 19.0006C34.0471 18.6361 34.8002 18.4513 35.5913 18.4513C38.2545 18.4513 40.4212 20.618 40.4212 23.2811C40.4212 25.9444 38.2545 28.1111 35.5913 28.1111C32.928 28.1111 30.7613 25.9444 30.7613 23.2811C30.7613 22.4608 30.9702 21.6514 31.3656 20.9409C31.5487 20.6117 31.4302 20.1964 31.1011 20.0133C30.7718 19.8301 30.3566 19.9485 30.1735 20.2777C29.6657 21.1906 29.3972 22.2292 29.3972 23.2811C29.3972 26.6967 32.1759 29.4752 35.5913 29.4752C39.0067 29.4752 41.7854 26.6966 41.7854 23.2811C41.7853 19.8658 39.0066 17.0872 35.5912 17.0872Z" fill="white"/>
<path d="M34.8488 25.4479C35.0233 25.4479 35.198 25.3814 35.3311 25.2482L38.3011 22.2782C38.5675 22.0118 38.5675 21.58 38.3011 21.3136C38.0347 21.0473 37.6028 21.0473 37.3366 21.3136L34.8488 23.8013L33.8461 22.7986C33.5797 22.5323 33.1479 22.5323 32.8816 22.7986C32.6152 23.0651 32.6152 23.4969 32.8816 23.7632L34.3666 25.2482C34.4997 25.3814 34.6743 25.4479 34.8488 25.4479Z" fill="white"/>
</svg>
