<?xml version="1.0" encoding="UTF-8"?>
<svg version="1.1" xmlns="http://www.w3.org/2000/svg" width="500" height="500">
<path d="M0 0 C165 0 330 0 500 0 C500 165 500 330 500 500 C335 500 170 500 0 500 C0 335 0 170 0 0 Z " fill="#42A8AF" transform="translate(0,0)"/>
<path d="M0 0 C165 0 330 0 500 0 C500 165 500 330 500 500 C335 500 170 500 0 500 C0 335 0 170 0 0 Z M136 37 C134.83984375 37.62261719 133.6796875 38.24523437 132.484375 38.88671875 C112.15012063 50.12526965 94.35825285 64.56518747 78 81 C77.08863281 81.8765625 76.17726563 82.753125 75.23828125 83.65625 C46.2913523 111.62317914 25.96258317 150.256621 16 189 C15.57847656 190.48113281 15.57847656 190.48113281 15.1484375 191.9921875 C10.18805211 210.08005746 8.78122526 229.07577081 8.8125 247.75 C8.81343658 248.47410065 8.81437317 249.19820129 8.81533813 249.94424438 C8.87277604 270.53672384 10.5949884 290.06567504 16 310 C16.27585937 311.01964844 16.55171875 312.03929687 16.8359375 313.08984375 C26.85769901 349.31895504 43.93319875 381.95372842 69 410 C69.70237793 410.78697266 69.70237793 410.78697266 70.41894531 411.58984375 C79.34892984 421.54857223 88.49528323 430.68492076 99 439 C99.97710937 439.7940625 100.95421875 440.588125 101.9609375 441.40625 C127.97372738 462.11164446 158.79671819 476.40837252 190.8125 484.875 C191.84793945 485.14932861 192.88337891 485.42365723 193.95019531 485.70629883 C211.25934065 490.04977707 227.98714514 491.51334948 245.81396484 491.44604492 C249.23206123 491.43754461 252.64847378 491.46640389 256.06640625 491.49804688 C270.76745813 491.54381261 284.62836067 490.0664119 299 487 C299.72102402 486.849366 300.44204803 486.69873199 301.18492126 486.54353333 C305.85345804 485.55895584 310.4280943 484.35830045 315 483 C316.05010254 482.68853027 317.10020508 482.37706055 318.18212891 482.05615234 C343.21646656 474.48363472 366.56936582 464.19979587 388 449 C388.99966797 448.29907227 388.99966797 448.29907227 390.01953125 447.58398438 C399.78544946 440.68435382 408.65751645 433.07462669 417.21826172 424.73486328 C418.94863127 423.05001729 420.69404209 421.38203061 422.44140625 419.71484375 C430.06856545 412.35530417 436.6919273 404.50713036 443 396 C443.63566895 395.15550293 443.63566895 395.15550293 444.28417969 394.29394531 C472.84669484 356.24718224 490.98241064 308.15390537 491.203125 260.375 C491.20882507 259.38862549 491.21452515 258.40225098 491.22039795 257.38598633 C491.22978544 255.30860444 491.23635682 253.23120808 491.24023438 251.15380859 C491.24988897 248.03585606 491.28095233 244.91857833 491.3125 241.80078125 C491.37765947 229.52914182 490.4970434 218.01300991 488 206 C487.70174316 204.45771729 487.70174316 204.45771729 487.39746094 202.88427734 C481.14358692 171.31413109 468.75558127 140.27557756 450 114 C449.27151855 112.96020996 449.27151855 112.96020996 448.52832031 111.89941406 C440.6388924 100.6690306 432.20481153 90.38620494 422.57714844 80.60351562 C421.25970356 79.26404535 419.95966966 77.90747918 418.6640625 76.546875 C413.51155722 71.20509401 407.81529197 66.59867168 402 62 C400.9996875 61.19433594 399.999375 60.38867188 398.96875 59.55859375 C390.72914607 52.99733217 382.04832543 47.37690648 373 42 C371.9780957 41.38125 371.9780957 41.38125 370.93554688 40.75 C357.92283132 32.91543937 344.24200887 27.22034034 330 22 C329.07171387 21.65807617 328.14342773 21.31615234 327.18701172 20.96386719 C265.77090136 -1.21324398 192.93475948 5.83889844 136 37 Z " fill="#FEFEFE" transform="translate(0,0)"/>
<path d="M0 0 C2.85452822 1.30354203 4.98134532 2.70947056 7.25 4.87109375 C7.85239502 5.43997314 8.45479004 6.00885254 9.07543945 6.5949707 C9.71054443 7.20300537 10.34564941 7.81104004 11 8.4375 C12.3472408 9.71137702 13.69490223 10.98480932 15.04296875 12.2578125 C15.71118652 12.89106445 16.3794043 13.52431641 17.06787109 14.17675781 C19.79256417 16.74789856 22.54762693 19.28470706 25.3125 21.8125 C26.28316406 22.70066406 27.25382812 23.58882812 28.25390625 24.50390625 C30.74168672 26.76520315 33.24304918 29.01001233 35.75 31.25 C40.95435416 35.91539192 46.03921142 40.70568358 51.11621094 45.50878906 C55.07255466 49.23973389 59.10507435 52.85830459 63.21044922 56.42431641 C65.38215219 58.33648162 67.45817241 60.32506992 69.5 62.375 C70.1703125 63.04273438 70.840625 63.71046875 71.53125 64.3984375 C73 66 73 66 73 67 C61.12 67 49.24 67 37 67 C36.26968242 103.23618273 35.84634558 139.47071524 35.53080368 175.71265411 C34.96012117 241.24707761 34.96012117 241.24707761 34.5 273.375 C34.48983479 274.08565739 34.47966957 274.79631477 34.46919632 275.52850723 C34.1071216 300.68835706 33.61692049 325.84511641 33 351 C8.82557638 343.38996118 -11.33332923 318.78132836 -22.8984375 297.10546875 C-28.96186027 285.39822763 -33.36178296 273.94544167 -36 261 C-36.16826294 260.25502762 -36.33652588 259.51005524 -36.5098877 258.74250793 C-38.18555977 250.69407341 -38.27485854 242.81739696 -38.23046875 234.625 C-38.2292701 233.13273153 -38.22882523 231.64046229 -38.2290802 230.14819336 C-38.22752253 227.01818097 -38.21930986 223.88828405 -38.20581055 220.75830078 C-38.18917231 216.86286108 -38.18507679 212.96755049 -38.18562794 209.07207966 C-38.18504522 192.57638401 -37.97808207 176.10108975 -37.4553299 159.61362267 C-36.88407246 141.55857293 -36.67335073 123.50124769 -36.46777344 105.43890381 C-36.40703228 100.16924124 -36.3418486 94.8996317 -36.27747345 89.63001251 C-36.18171582 81.75337584 -36.0913409 73.87669466 -36 66 C-48.21 66 -60.42 66 -73 66 C-73 64 -73 64 -71.6015625 62.58984375 C-70.94929687 62.04457031 -70.29703125 61.49929687 -69.625 60.9375 C-66.37058933 58.17182591 -63.16586167 55.36691808 -60 52.5 C-54.66437363 47.68985199 -49.28413119 42.94019763 -43.8125 38.28515625 C-38.05734779 33.38425311 -32.35099456 28.45811613 -26.8125 23.3125 C-22.25651203 19.08140255 -17.53443054 15.11323157 -12.69140625 11.21484375 C-8.32840573 7.62439194 -4.16251677 3.81940259 0 0 Z " fill="#FDFEFE" transform="translate(246,104)"/>
</svg>
