<?xml version="1.0" encoding="UTF-8"?>
<svg version="1.1" xmlns="http://www.w3.org/2000/svg" width="500" height="500">
<path d="M0 0 C0.78052734 0.15807129 1.56105469 0.31614258 2.36523438 0.47900391 C41.70021012 8.5107932 76.93097835 27.56768738 107.625 53.0546875 C109.14569566 54.3002573 110.70674018 55.49901587 112.3125 56.6328125 C113.1478125 57.30957031 113.1478125 57.30957031 114 58 C114 58.66 114 59.32 114 60 C114.54269531 60.21785156 115.08539063 60.43570313 115.64453125 60.66015625 C118.79698489 62.45334298 121.16760571 64.87049359 123.6875 67.4375 C124.22004395 67.97753662 124.75258789 68.51757324 125.30126953 69.07397461 C130.21418544 74.11905342 134.7169539 79.41056072 139 85 C139.51820313 85.6688623 140.03640625 86.33772461 140.5703125 87.02685547 C149.40838231 98.49061897 157.13741317 110.25679454 164 123 C164.36818848 123.67595215 164.73637695 124.3519043 165.11572266 125.04833984 C193.97478806 178.49942321 199.17920724 242.69831007 184 301 C183.72615479 302.09368896 183.72615479 302.09368896 183.44677734 303.20947266 C175.51721645 334.56894571 159.38520472 364.03634098 139 389 C138.33411865 389.82032715 138.33411865 389.82032715 137.65478516 390.65722656 C126.4805829 404.32465054 114.12932871 417.36620834 100 428 C99.37996094 428.47469727 98.75992187 428.94939453 98.12109375 429.43847656 C46.83563075 468.53512696 -17.50226381 485.31452074 -81.50390625 477.80859375 C-139.74787139 469.80682295 -196.1968464 440.43939063 -234 395 C-234.41443359 394.50999512 -234.82886719 394.01999023 -235.25585938 393.51513672 C-261.36157353 362.521505 -278.76073799 325.74746095 -287.25 286.1875 C-287.40114258 285.48415527 -287.55228516 284.78081055 -287.70800781 284.05615234 C-288.1826941 281.71004482 -288.59948481 279.35994171 -289 277 C-289.17805176 275.98542725 -289.35610352 274.97085449 -289.53955078 273.92553711 C-291.38874244 262.04129959 -291.39749546 250.19030335 -291.375 238.1875 C-291.37418427 236.55485199 -291.37418427 236.55485199 -291.37335205 234.88922119 C-291.3358609 218.58237019 -290.71317282 202.94347111 -287 187 C-286.67854004 185.55512207 -286.67854004 185.55512207 -286.35058594 184.08105469 C-277.74190359 146.04997622 -260.56021828 110.54965344 -235 81 C-234.34128906 80.23042969 -233.68257812 79.46085937 -233.00390625 78.66796875 C-221.77019518 65.86281228 -209.74210804 54.07258531 -196 44 C-195.43071777 43.57525391 -194.86143555 43.15050781 -194.27490234 42.71289062 C-138.99274383 1.5045379 -67.60286861 -14.52381264 0 0 Z " fill="#16949C" transform="translate(300,13)"/>
<path d="M0 0 C3.82766361 1.60311558 6.42524783 4.05484532 9.4375 6.875 C9.95538086 7.35678711 10.47326172 7.83857422 11.00683594 8.33496094 C12.10828405 9.35985543 13.20801438 10.38659865 14.30615234 11.41503906 C17.1098452 14.03850029 19.92986969 16.64423423 22.75 19.25 C23.29793213 19.75732666 23.84586426 20.26465332 24.41040039 20.78735352 C27.35888667 23.51092121 30.33574867 26.18982559 33.375 28.8125 C36.47573087 31.49158337 39.35236393 34.33154514 42.22265625 37.25390625 C44.06593574 39.06477643 45.97822799 40.75321354 47.9375 42.4375 C50.74576347 44.85617779 53.39970593 47.35899683 56 50 C60.89011092 54.95723009 66.11673898 59.46476973 71.5 63.875 C72.325 64.57625 73.15 65.2775 74 66 C74 66.33 74 66.66 74 67 C61.79 67 49.58 67 37 67 C36.26968242 103.23618273 35.84634558 139.47071524 35.53080368 175.71265411 C34.96012117 241.24707761 34.96012117 241.24707761 34.5 273.375 C34.48983479 274.08565739 34.47966957 274.79631477 34.46919632 275.52850723 C34.1071216 300.68835706 33.61692049 325.84511641 33 351 C8.02234075 343.02776429 -12.33915953 317.49615786 -23.96826172 295.02636719 C-24.30873535 294.35766602 -24.64920898 293.68896484 -25 293 C-25.48944092 292.04335449 -25.48944092 292.04335449 -25.98876953 291.06738281 C-33.09555193 276.86838857 -38.11711659 259.88254255 -38.12939453 243.92797852 C-38.13250137 242.73341034 -38.13560822 241.53884216 -38.1388092 240.30807495 C-38.13683029 239.01144928 -38.13485138 237.71482361 -38.1328125 236.37890625 C-38.13387337 234.99040703 -38.13526024 233.60190802 -38.13694763 232.21340942 C-38.13976774 228.44978135 -38.1353235 224.68619536 -38.12877274 220.92257309 C-38.12498716 218.5544708 -38.12292843 216.18637251 -38.12130737 213.81826782 C-38.08167919 164.53704508 -37.3013012 115.26354548 -36 66 C-48.21 66 -60.42 66 -73 66 C-71.7706815 62.3120445 -70.42987206 61.54398686 -67.375 59.1875 C-62.52953349 55.33000523 -57.99264091 51.26153211 -53.5 47 C-48.43462881 42.20704253 -43.26237976 37.69152739 -37.80859375 33.33984375 C-34.41762122 30.51481935 -31.21213573 27.5249453 -28 24.5 C-23.03419431 19.82515159 -17.94735837 15.41029147 -12.62109375 11.14453125 C-8.27349811 7.58740754 -4.13805325 3.79695559 0 0 Z " fill="#FDFEFE" transform="translate(246,104)"/>
</svg>
