<svg width="187" height="46" viewBox="0 0 187 46" fill="none" xmlns="http://www.w3.org/2000/svg">
<path d="M79.5213 7.45703L86.6907 30.489H86.9659L94.1498 7.45703H101.102L90.8765 37.7716H82.7946L72.5547 7.45703H79.5213Z" fill="white"/>
<path d="M106.391 38.2009C104.972 38.2009 103.707 37.9493 102.597 37.446C101.486 36.9328 100.608 36.1779 99.9606 35.1813C99.3234 34.1747 99.0047 32.9215 99.0047 31.4216C99.0047 30.1584 99.2316 29.0976 99.6854 28.2391C100.139 27.3806 100.757 26.6898 101.539 26.1668C102.321 25.6438 103.21 25.2491 104.204 24.9827C105.209 24.7162 106.261 24.5287 107.362 24.4202C108.656 24.282 109.698 24.1537 110.49 24.0353C111.282 23.907 111.857 23.7196 112.214 23.4729C112.571 23.2262 112.75 22.861 112.75 22.3775V22.2887C112.75 21.3512 112.46 20.6259 111.881 20.1128C111.311 19.5996 110.5 19.3431 109.447 19.3431C108.337 19.3431 107.454 19.5947 106.797 20.098C106.14 20.5914 105.706 21.2131 105.493 21.963L99.7868 21.4894C100.077 20.1079 100.646 18.9138 101.496 17.9073C102.346 16.8909 103.442 16.1113 104.784 15.5686C106.135 15.0159 107.7 14.7396 109.476 14.7396C110.712 14.7396 111.895 14.8877 113.025 15.1837C114.164 15.4797 115.173 15.9386 116.052 16.5603C116.94 17.182 117.64 17.9813 118.152 18.9582C118.664 19.9253 118.92 21.0848 118.92 22.4367V37.7716H113.068V34.6188H112.895C112.537 35.3293 112.059 35.9559 111.461 36.4987C110.862 37.0315 110.143 37.4509 109.303 37.7568C108.463 38.0529 107.492 38.2009 106.391 38.2009ZM108.158 33.8491C109.066 33.8491 109.867 33.6665 110.563 33.3014C111.258 32.9264 111.803 32.4232 112.199 31.7916C112.595 31.1601 112.793 30.4446 112.793 29.6453V27.2326C112.6 27.3609 112.334 27.4793 111.997 27.5878C111.668 27.6865 111.296 27.7802 110.881 27.8691C110.466 27.948 110.051 28.022 109.636 28.0911C109.221 28.1503 108.844 28.2046 108.506 28.2539C107.782 28.3625 107.149 28.5352 106.609 28.772C106.068 29.0088 105.648 29.3295 105.349 29.7341C105.049 30.1288 104.9 30.6222 104.9 31.2143C104.9 32.0728 105.204 32.7291 105.812 33.183C106.43 33.6271 107.212 33.8491 108.158 33.8491Z" fill="white"/>
<path d="M127.837 7.45703V37.7716H121.667V7.45703H127.837Z" fill="white"/>
<path d="M140.792 38.2157C138.542 38.2157 136.597 37.7272 134.955 36.7503C133.323 35.7635 132.063 34.3918 131.175 32.6353C130.287 30.8689 129.843 28.8213 129.843 26.4925C129.843 24.1439 130.287 22.0913 131.175 20.3348C132.063 18.5684 133.323 17.1968 134.955 16.2198C136.597 15.233 138.542 14.7396 140.792 14.7396C143.042 14.7396 144.983 15.233 146.615 16.2198C148.256 17.1968 149.521 18.5684 150.409 20.3348C151.298 22.0913 151.742 24.1439 151.742 26.4925C151.742 28.8213 151.298 30.8689 150.409 32.6353C149.521 34.3918 148.256 35.7635 146.615 36.7503C144.983 37.7272 143.042 38.2157 140.792 38.2157ZM140.821 33.331C141.845 33.331 142.699 33.035 143.385 32.4429C144.07 31.8409 144.587 31.0219 144.935 29.9858C145.292 28.9496 145.47 27.7704 145.47 26.4481C145.47 25.1257 145.292 23.9465 144.935 22.9104C144.587 21.8742 144.07 21.0552 143.385 20.4532C142.699 19.8513 141.845 19.5503 140.821 19.5503C139.788 19.5503 138.919 19.8513 138.214 20.4532C137.519 21.0552 136.993 21.8742 136.635 22.9104C136.288 23.9465 136.114 25.1257 136.114 26.4481C136.114 27.7704 136.288 28.9496 136.635 29.9858C136.993 31.0219 137.519 31.8409 138.214 32.4429C138.919 33.035 139.788 33.331 140.821 33.331Z" fill="white"/>
<path d="M153.715 37.7716V15.0357H159.595V19.047H159.856C160.319 17.7149 161.091 16.6639 162.173 15.8942C163.254 15.1245 164.548 14.7396 166.055 14.7396C167.58 14.7396 168.879 15.1294 169.951 15.909C171.022 16.6787 171.737 17.7247 172.094 19.047H172.326C172.78 17.7445 173.601 16.7034 174.788 15.9238C175.986 15.1344 177.4 14.7396 179.032 14.7396C181.108 14.7396 182.793 15.4156 184.087 16.7675C185.39 18.1096 186.042 20.0141 186.042 22.4811V37.7716H179.886V23.7245C179.886 22.4614 179.558 21.514 178.902 20.8825C178.245 20.2509 177.424 19.9352 176.439 19.9352C175.319 19.9352 174.445 20.3003 173.818 21.0305C173.19 21.7509 172.876 22.7031 172.876 23.8873V37.7716H166.895V23.5913C166.895 22.4762 166.581 21.5881 165.953 20.9269C165.335 20.2657 164.519 19.9352 163.505 19.9352C162.82 19.9352 162.202 20.1128 161.652 20.468C161.111 20.8134 160.681 21.3019 160.362 21.9334C160.044 22.5551 159.885 23.2854 159.885 24.1241V37.7716H153.715Z" fill="white"/>
<path fill-rule="evenodd" clip-rule="evenodd" d="M12.0898 10.2534H22.3223V26.1409L12.0898 33.5554V10.2534Z" fill="#128982"/>
<path fill-rule="evenodd" clip-rule="evenodd" d="M25.1172 5.59277H35.3497V23.4086L31.9172 20.2668L25.1172 25.1665V5.59277Z" fill="#128982"/>
<path fill-rule="evenodd" clip-rule="evenodd" d="M38.1406 0H48.3731V25.0247L42.8914 29.8266L38.1406 25.451V0Z" fill="#128982"/>
<path d="M31.7437 24.4586L42.4344 33.6627L53.226 24.829L50.4176 21.9912L65.1157 17.7093L60.4519 32.1434L57.896 29.5567L42.6931 42.2453L30.917 29.9208L0 45.9998L31.7437 24.4586Z" fill="#128982"/>
</svg>
