<svg width="170" height="42" viewBox="0 0 170 42" fill="none" xmlns="http://www.w3.org/2000/svg">
<path d="M72.6108 6.80859L79.1568 27.8378H79.4081L85.9673 6.80859H92.3149L82.9786 34.4871H75.5995L66.25 6.80859H72.6108Z" fill="#1D3131"/>
<path d="M97.1444 34.8791C95.8484 34.8791 94.6935 34.6493 93.6796 34.1898C92.6658 33.7213 91.8635 33.032 91.2728 32.122C90.691 31.203 90.4 30.0588 90.4 28.6892C90.4 27.536 90.6072 26.5674 91.0216 25.7835C91.4359 24.9997 92.0002 24.369 92.7143 23.8915C93.4284 23.4139 94.2395 23.0535 95.1475 22.8103C96.0644 22.567 97.0254 22.3958 98.0304 22.2967C99.2118 22.1705 100.164 22.0534 100.887 21.9453C101.61 21.8282 102.134 21.657 102.46 21.4317C102.787 21.2065 102.95 20.8731 102.95 20.4316V20.3505C102.95 19.4946 102.685 18.8324 102.156 18.3638C101.636 17.8953 100.896 17.6611 99.9347 17.6611C98.9208 17.6611 98.1141 17.8908 97.5146 18.3503C96.9151 18.8008 96.5184 19.3685 96.3245 20.0532L91.1141 19.6207C91.3786 18.3593 91.8988 17.2691 92.6746 16.3501C93.4504 15.4221 94.451 14.7103 95.6765 14.2148C96.9107 13.7102 98.339 13.4579 99.9611 13.4579C101.09 13.4579 102.17 13.5931 103.201 13.8634C104.241 14.1337 105.163 14.5526 105.965 15.1203C106.776 15.6879 107.415 16.4177 107.882 17.3097C108.35 18.1927 108.583 19.2513 108.583 20.4857V34.4871H103.241V31.6085H103.082C102.756 32.2572 102.319 32.8293 101.773 33.3249C101.226 33.8114 100.569 34.1943 99.8024 34.4736C99.0354 34.7439 98.1494 34.8791 97.1444 34.8791ZM98.7577 30.9057C99.5864 30.9057 100.318 30.739 100.953 30.4056C101.588 30.0633 102.086 29.6038 102.447 29.0271C102.809 28.4505 102.989 27.7973 102.989 27.0675V24.8645C102.813 24.9817 102.571 25.0898 102.262 25.1889C101.962 25.279 101.623 25.3646 101.244 25.4457C100.865 25.5177 100.486 25.5853 100.107 25.6484C99.7275 25.7024 99.3837 25.752 99.0751 25.7971C98.4139 25.8962 97.8364 26.0538 97.3427 26.2701C96.849 26.4863 96.4655 26.7791 96.1922 27.1485C95.9189 27.5089 95.7823 27.9594 95.7823 28.5C95.7823 29.2839 96.06 29.8831 96.6154 30.2975C97.1796 30.703 97.8937 30.9057 98.7577 30.9057Z" fill="#1D3131"/>
<path d="M116.725 6.80859V34.4871H111.092V6.80859H116.725Z" fill="#1D3131"/>
<path d="M128.554 34.8926C126.5 34.8926 124.723 34.4466 123.224 33.5546C121.735 32.6536 120.584 31.4012 119.773 29.7975C118.962 28.1847 118.556 26.3151 118.556 24.1888C118.556 22.0444 118.962 20.1703 119.773 18.5666C120.584 16.9538 121.735 15.7014 123.224 14.8094C124.723 13.9084 126.5 13.4579 128.554 13.4579C130.608 13.4579 132.38 13.9084 133.87 14.8094C135.369 15.7014 136.524 16.9538 137.335 18.5666C138.146 20.1703 138.551 22.0444 138.551 24.1888C138.551 26.3151 138.146 28.1847 137.335 29.7975C136.524 31.4012 135.369 32.6536 133.87 33.5546C132.38 34.4466 130.608 34.8926 128.554 34.8926ZM128.58 30.4327C129.515 30.4327 130.295 30.1624 130.921 29.6218C131.547 29.0722 132.019 28.3243 132.336 27.3783C132.662 26.4323 132.825 25.3556 132.825 24.1482C132.825 22.9409 132.662 21.8642 132.336 20.9182C132.019 19.9721 131.547 19.2243 130.921 18.6747C130.295 18.1251 129.515 17.8503 128.58 17.8503C127.637 17.8503 126.843 18.1251 126.2 18.6747C125.565 19.2243 125.085 19.9721 124.758 20.9182C124.441 21.8642 124.282 22.9409 124.282 24.1482C124.282 25.3556 124.441 26.4323 124.758 27.3783C125.085 28.3243 125.565 29.0722 126.2 29.6218C126.843 30.1624 127.637 30.4327 128.58 30.4327Z" fill="#1D3131"/>
<path d="M140.352 34.4871V13.7282H145.721V17.3908H145.96C146.383 16.1744 147.088 15.2149 148.075 14.5121C149.063 13.8093 150.244 13.4579 151.619 13.4579C153.012 13.4579 154.198 13.8138 155.177 14.5256C156.155 15.2284 156.808 16.1834 157.134 17.3908H157.346C157.76 16.2015 158.509 15.2509 159.594 14.5391C160.687 13.8183 161.978 13.4579 163.468 13.4579C165.364 13.4579 166.902 14.0751 168.084 15.3095C169.274 16.5348 169.869 18.2737 169.869 20.5262V34.4871H164.249V21.6615C164.249 20.5082 163.949 19.6433 163.349 19.0666C162.75 18.49 162 18.2017 161.101 18.2017C160.079 18.2017 159.281 18.535 158.708 19.2018C158.135 19.8595 157.848 20.729 157.848 21.8102V34.4871H152.386V21.5399C152.386 20.5217 152.1 19.7108 151.527 19.1072C150.963 18.5035 150.218 18.2017 149.292 18.2017C148.666 18.2017 148.102 18.3638 147.599 18.6882C147.106 19.0036 146.713 19.4495 146.422 20.0262C146.131 20.5938 145.986 21.2605 145.986 22.0264V34.4871H140.352Z" fill="#1D3131"/>
<path fill-rule="evenodd" clip-rule="evenodd" d="M11.043 9.36133H20.3857V23.8673L11.043 30.6371V9.36133Z" fill="#128982"/>
<path fill-rule="evenodd" clip-rule="evenodd" d="M22.9336 5.1062H32.2763V21.3728L29.1423 18.5042L22.9336 22.9778V5.1062Z" fill="#128982"/>
<path fill-rule="evenodd" clip-rule="evenodd" d="M34.8203 0H44.163V22.8487L39.158 27.233L34.8203 23.2379V0Z" fill="#128982"/>
<path d="M28.9834 22.3321L38.7444 30.7358L48.5976 22.6703L46.0335 20.0792L59.4534 16.1697L55.1952 29.3486L52.8616 26.9868L38.9807 38.5721L28.2286 27.3193L0 42.0001L28.9834 22.3321Z" fill="#128982"/>
</svg>
